<?xml version="1.0" standalone="no"?>
<!DOCTYPE svg PUBLIC "-//W3C//DTD SVG 1.1//EN" "http://www.w3.org/Graphics/SVG/1.1/DTD/svg11.dtd">
<svg xmlns="http://www.w3.org/2000/svg">
<metadata>Copyright (C) 2014 by original authors @ fontello.com</metadata>
<defs>
<font id="sinet" horiz-adv-x="1000" >
<font-face font-family="sinet" font-weight="400" font-stretch="normal" units-per-em="1000" ascent="850" descent="-150" />
<missing-glyph horiz-adv-x="1000" />
<glyph glyph-name="admin" unicode="&#xe800;" d="m627 344c0-67-54-121-120-121s-121 54-121 121 54 121 121 121 120-54 120-121z m256 22l0-47c0-13-10-23-23-23l-36 0c-4-25-11-50-20-73l31-18c11-7 15-21 8-32l-23-41c-7-11-21-14-32-8l-31 18c-16-19-34-37-54-53l18-32c6-11 3-25-8-31l-41-24c-11-6-26-2-32 9l-18 31c-23-9-47-15-72-19v-36c0-13-10-23-23-23h-47c-13 0-23 10-23 23v36c-26 4-50 11-74 20l-18-32c-6-11-20-14-31-8l-41 24c-11 6-15 20-9 31l19 32c-20 16-38 34-54 53l-32-18c-11-6-25-2-31 9l-24 41c-6 11-2 25 9 31l31 18c-9 23-15 48-19 74l-37 0c-12 0-23 10-22 23l0 47c0 13 10 23 23 23l36 0c4 25 11 50 20 73l-32 18c-11 7-14 21-8 32l24 41c6 11 20 14 31 8l32-18c16 20 34 37 54 53l-19 32c-6 11-2 25 9 31l41 24c11 6 25 2 31-9l19-31c22 9 47 15 72 19v36c0 13 10 23 23 23h47c13 0 23-10 23-23v-36c25-4 50-11 73-20l18 32c7 11 21 14 32 8l41-24c11-6 15-20 8-31l-18-32c20-15 38-33 53-53l32 18c11 6 25 2 32-9l23-41c6-10 3-25-8-31l-32-18c9-23 16-48 20-73l36-1c13 0 23-10 23-23z m-113-22c0 146-120 266-267 266s-266-120-266-266 119-267 266-267 267 120 267 267z" horiz-adv-x="1000" />
<glyph glyph-name="videos" unicode="&#xe801;" d="m820 605h-651c-27 0-48-20-48-44v-447c0-24 21-43 48-43h651c26 0 48 19 48 43v447c0 24-22 44-48 44z m-216-277l-178-108c-2-2-4-2-6-2-2 0-4 0-6 1-4 2-6 7-6 11v215c0 5 2 9 6 11 4 2 9 2 12 0l178-107c4-3 6-6 6-11 0-4-2-8-6-10z" horiz-adv-x="1000" />
<glyph glyph-name="apple" unicode="&#xe806;" d="m727 84c-52-56-122-92-198-92h-11c-77 0-147 36-198 92-52 57-84 134-84 212 1 131 88 219 214 251 3-1 11-6 20-12 11-6 25-15 48-16h11c26 1 41 13 52 19 6 4 11 6 14 8 1 0 1 1 2 1 126-32 213-120 214-251 0-78-32-155-84-212l0 0z m-117 529c-4 1-9 2-13 2-26-1-40-13-51-19-6-4-10-7-14-8-1-1-2-1-3-1l0 0h-11c0 0-1 0-4 1-5 2-12 7-22 13 0 4-1 7-1 11 0 16 2 33 6 52-21 38-61 77-141 84-81 7-98 47-98 47s-46-153 65-228c-92-56-155-150-155-271 1-192 153-371 350-372h11c196 1 349 180 349 372 1 166-118 282-268 317l0 0z m-117 25c0-1 0-1 0-2-1-8-2-17-2-24 0-4 1-7 1-11 10-6 17-11 22-13 3-1 4-1 4-1h11l0 0c1 0 2 0 3 1 4 1 8 4 14 8 1 0 3 1 4 2 0 5 0 9 0 14 0 38 9 87 48 130l-43 39c-35-38-51-79-58-117-2-9-3-17-4-26l0 0z m2-381v6c0 17-10 81-32 81l0 0c-22 0-31-64-31-81v-6c0-17 15-31 31-31l0 0c16 0 32 14 32 31l0 0z m118 0v6c0 17-9 81-31 81l0 0c-22 0-31-64-31-81v-6c0-17 15-31 31-31l0 0c16 0 31 14 31 31l0 0z m171-266c1 4 4 7 7 10 3 3 6 5 10 7 4 1 8 2 13 2 4 0 8-1 12-2 4-2 8-4 11-7 2-3 5-6 7-10 1-4 2-8 2-13 0-5-1-9-2-13-2-4-5-7-7-10-3-3-7-5-11-7-4-2-8-2-12-2-5 0-9 0-13 2-4 2-7 4-10 7-3 3-6 6-7 10-2 4-3 8-3 13 0 5 1 9 3 13z m5-24c1-3 3-6 6-9 2-2 5-4 8-6 3-1 7-2 11-2 3 0 7 1 10 2 3 2 6 4 9 6 2 3 4 6 5 9 2 3 2 7 2 11 0 4 0 7-2 11-1 3-3 6-5 8-3 3-6 5-9 6-3 2-7 2-10 2-4 0-8 0-11-2-3-1-6-3-8-6-3-2-5-5-6-8-1-4-2-7-2-11 0-4 1-8 2-11z m27 30c4 0 8-1 10-3 2-2 3-4 3-8 0-3-1-6-3-8-2-1-4-2-7-2l11-17h-6l-11 16h-6v-16h-6v38h15z m-3-17c1 0 3 0 4 0 1 0 2 0 3 1 1 0 2 1 2 2 1 1 1 2 1 3 0 1 0 2-1 3 0 1-1 2-2 2 0 0-1 1-2 1-1 0-2 0-3 0h-8v-12h6z" horiz-adv-x="1000" />
<glyph glyph-name="differentlearning" unicode="&#xe807;" d="m815 369h-251c-23 0-42 19-42 42v251c0 23 19 42 42 42h251c24 0 43-19 43-42v-251c0-23-19-42-43-42z m-549 331l-44-90c-2-2-4-4-8-5l-98-14c-8-1-11-11-5-16l71-70c2-2 3-5 3-8l-17-98c-1-8 7-14 13-10l89 46c2 2 6 2 8 0l89-46c7-4 15 2 13 10l-17 98c0 3 1 6 3 8l72 70c5 5 2 15-6 16l-98 14c-3 1-6 3-7 5l-45 90c-3 7-13 7-16 0z m8-392c-92 0-166-75-166-166s74-167 166-167 166 75 166 167-74 166-166 166z m603-303c0 6-2 10-5 14l-164 268c-4 6-10 9-16 9 0 0 0 0 0 0-7 0-13-3-16-9l-164-272c-4-6-4-13-1-19s10-9 17-9h330c0 0 0 0 0 0 11 0 19 8 19 18z" horiz-adv-x="1000" />
<glyph glyph-name="discuss" unicode="&#xe80a;" d="m610 679v-299c0-20-16-37-37-37h-176c0 0-144-180-160-199-16-20-21-17-21 3 0 20 0 196 0 196h-93c-21 0-37 17-37 37v299c0 20 16 37 37 37h450c21 0 37-17 37-37z m186-530h59c40 0 72 32 72 72v266c0 40-32 72-72 72h-156c-19 0-35-15-35-34 0-20 16-35 35-35h156c2 0 3-1 3-3v-266c0-2-1-3-3-3h-127l-1-136-122 136h-148c-1 0-3 1-3 3v23c0 19-15 34-34 34s-35-15-35-34v-23c0-40 33-72 72-72h117c0 0 163-182 185-206s36-34 36 7c0 42 1 199 1 199z" horiz-adv-x="1000" />
<glyph glyph-name="groups" unicode="&#xe80b;" d="m879 340c0 75-26 145-69 200 10 21 16 44 16 68 0 87-71 157-158 157-67 0-124-42-147-101-118-11-218-86-265-190 0 0 0 0 0 0-74 0-135-60-135-134 0-75 61-135 135-135 0 0 0 0 0 0 49-107 154-183 277-190 22-54 75-92 136-92 82 0 147 66 147 147 0 22-4 43-13 61 47 57 76 129 76 209z m-111 268c0-55-45-100-100-100s-100 45-100 100 45 100 100 100 100-45 100-100z m-454-390c45 22 76 68 76 122 0 53-31 99-76 121 38 75 111 130 197 144 2-86 71-154 157-154 41 0 78 15 106 41 30-43 47-96 47-152 0-60-20-116-53-161-26 24-61 38-99 38-80 0-145-64-146-144-92 10-169 67-209 145z" horiz-adv-x="1000" />
<glyph glyph-name="groups2" unicode="&#xe80e;" d="m606 310c-68 0-123 55-123 123s55 124 123 124 123-56 123-124-55-123-123-123z m-100 425c-216 0-392-176-392-393 0-217 176-393 392-393 217 0 393 176 393 393 0 217-176 393-393 393z m-214-457c10-25 30-43 55-51v-20h-44c-32 0-58-26-58-57v-18c-33 42-57 91-68 146h115z m-1-193v65c0 6 6 11 12 11h44 11 35 54v-149c-58 11-112 36-156 73z m100 192c-6-5-13-7-21-7-4 0-8 1-12 2-14 5-25 19-25 35 0 6 2 11 4 16 1 3 3 5 4 7 7 8 17 14 29 14 20 0 37-17 37-37 0-13-6-24-16-30z m-191 159c0 21 17 37 37 37s37-16 37-37-17-37-37-37-37 17-37 37z m584-282v42c0 44-36 80-81 80h-175c-41 0-74-30-80-69h-55v20c34 10 60 42 60 80 0 46-37 83-83 83-36 0-66-23-78-55-1-4-2-7-3-11h-117c-1 4-1 7-1 11 0 3 0 5 0 7 0 14 1 27 3 41 15-18 38-30 63-30 46 0 83 37 83 83s-37 83-83 83c-6 0-11 0-16-1 59 95 165 160 285 160 185 0 336-151 336-336 0-70-22-134-58-188z" horiz-adv-x="1000" />
<glyph glyph-name="journal" unicode="&#xe80f;" d="m331 561v-12c0-7-5-14-12-14h-97c-7 0-12 7-12 14v12c0 8 5 14 12 14h97c7 0 12-6 12-14z m-12-121h-97c-7 0-12-6-12-14v-12c0-8 5-14 12-14h97c7 0 12 6 12 14v12c0 8-5 14-12 14z m0-136h-97c-7 0-12-6-12-13v-12c0-8 5-14 12-14h97c7 0 12 6 12 14v12c0 7-5 13-12 13z m0-135h-97c-7 0-12-6-12-13v-13c0-7 5-13 12-13h97c7 0 12 6 12 13v13c0 7-5 13-12 13z m303 547h-335c-28 0-51-25-51-54v-64h83c19 0 34-17 34-37v-12c0-20-15-36-34-36h-83v-51h83c19 0 34-16 34-36v-12c0-20-15-36-34-36h-83v-51h83c19 0 34-16 34-36v-12c0-20-15-37-34-37h-83v-50h83c19 0 34-16 34-36v-12c0-20-15-37-34-37h-83v-64c0-30 23-54 51-54h335v727z m111 0h-69v-727h69c28 0 51 24 51 54v619c0 29-23 54-51 54z" horiz-adv-x="1000" />
<glyph glyph-name="learningprogress" unicode="&#xe812;" d="m190 297l116 166c16-7 34-8 51-2 3 1 6 2 9 3 12 6 22 14 29 24l87-25c0 0 0 0 0 0 0-46 37-83 83-83s83 37 83 83c0 46-37 83-83 83-29 0-54-15-69-37l-85 24c0 15-4 29-12 42-18 29-55 43-88 33-25-8-43-28-51-52-6-21-3-44 9-63l-117-168c-15 5-32 6-48 1-25-8-43-27-50-51-7-21-4-44 8-63 18-30 55-43 88-33 3 1 6 2 9 4 21 9 36 26 42 48 6 21 3 44-9 63 0 1-1 2-2 3z m375 212c25 0 46-21 46-46 0-26-21-46-46-46-25 0-46 20-46 46 0 25 21 46 46 46z m-141-441v-105c0-13-14-24-31-24h-134c-17 0-30 11-30 24v105c0 13 13 24 30 24h134c17 0 31-11 31-24z m310 539l49 48-48 50c-9 9-9 24 1 33 9 9 24 9 34 0l48-50 49 48c10 9 25 9 34-1 9-9 9-24-1-33l-49-48 48-50c9-10 9-25-1-34-5-4-10-6-16-6-7 0-13 2-18 7l-48 50-49-48c-5-5-11-7-17-7-6 0-12 2-17 7-9 10-9 25 1 34z m181-351v-104c0-14-13-24-30-24h-134c-17 0-31 10-31 24v104c0 14 14 24 31 24h134c17 0 30-10 30-24z m0 188v-104c0-14-13-24-30-24h-134c-17 0-31 10-31 24v104c0 14 14 24 31 24h134c17 0 30-10 30-24z m-245-376v-105c0-13-14-24-31-24h-134c-17 0-31 11-31 24v105c0 13 14 24 31 24h134c17 0 31-11 31-24z m245 0v-105c0-13-13-24-30-24h-134c-17 0-31 11-31 24v105c0 13 14 24 31 24h134c17 0 30-11 30-24z m-245 188v-104c0-14-14-24-31-24h-134c-17 0-31 10-31 24v104c0 14 14 24 31 24h134c17 0 31-10 31-24z" horiz-adv-x="1000" />
<glyph glyph-name="learningtarget" unicode="&#xe813;" d="m993 668c-3 8-10 14-19 14l-129 8c-5 0-10-1-14-4l-3-2 2 5c7 13 12 34 12 48l-1 89c0 14-8 17-18 8l-112-107c-11-9-19-29-19-43l-3-100c-48 37-105 62-167 69-90 12-179-13-251-68-72-56-118-136-129-227-24-186 108-357 295-380 14-2 29-3 43-3 75 0 148 25 208 71 72 56 118 137 129 227 7 51 2 101-14 149-6 17-24 26-40 21-17-6-26-24-21-41 13-39 17-80 12-121-9-74-47-139-105-184-58-45-131-65-204-56-74 9-139 47-184 105-45 58-65 131-56 204 9 74 47 139 105 184 58 46 131 65 204 56 53-7 101-28 141-61l-112-114c-18 12-40 20-63 20-66 1-121-51-123-117-1-66 51-121 117-122 1 0 2 0 3 0 65 0 118 52 120 117 0 24-7 47-19 66l131 132 130 0h0c6 0 12 2 16 6l133 127c6 6 8 15 5 24z m-162-113l-77 0 50 50c2 3 4 7 5 10l9 8 32 22 70-4-89-86z" horiz-adv-x="1000" />
<glyph glyph-name="lumibook" unicode="&#xe814;" d="m879 506l-49-386-287-114c0 0-15-5-33-5h0c-18 0-33 5-33 5l-287 114-49 386 4 8 335-148c0 0 17-3 30-3 13 0 30 3 30 3l335 148 4-8z m-449-57c19-9 38-20 58-25 42-12 79 10 115 29l218 132-212-92 115 189-161-145 31 189-84-177-84 176 31-187-152 142 108-185-205 85 222-131z" horiz-adv-x="1000" />
<glyph glyph-name="admin2" unicode="&#xe802;" d="m901 158c-26 11-55 8-79-7-8-5-15-13-21-21l-95 49c0 1 1 3 2 4 6 22 5 45-2 67l116 59c4-5 9-9 15-13 20-13 45-15 68-6 30 13 48 45 43 77-3 21-15 39-33 51-17 11-39 14-59 8-3 0-6-1-8-3-30-12-48-45-43-77 0-1 0-1 0-2l-117-60c-28 35-77 51-121 37-26-8-48-26-62-48l-99 51c2 5 4 10 5 16 11 38 8 76-5 111l102 52c27-41 79-60 126-45 5 1 9 3 13 5 29 13 51 38 61 69 9 31 4 64-13 91-26 43-80 63-128 48-36-12-63-40-73-75-6-19-6-39-1-57l-104-54c-23 35-57 62-100 75-95 26-193-29-220-123-27-94 28-193 123-220 75-21 154 10 196 72l104-53c-6-27-1-56 14-81 27-42 80-62 128-47 5 2 9 4 13 6 16 7 29 18 40 31l98-50c0-1 0-2 0-2-6-38 15-75 50-90 3-1 6-3 10-4 7-2 15-3 23-3 16 0 32 5 45 14 21 13 34 34 38 58 6 37-15 75-50 90z m-550 286l0 0 0 0z m327-187l0 0 0 0z m214-214c-13-8-28-9-42-3-18 8-29 27-26 47 2 13 9 23 20 30 7 5 15 7 24 7 4 0 8 0 12-1 2-1 4-1 5-2 18-8 29-28 26-47-2-13-9-24-19-31z" horiz-adv-x="1000" />
<glyph glyph-name="more" unicode="&#xe803;" d="m303 346c0-63-51-114-115-114s-114 51-114 114 51 115 114 115 115-51 115-115z m190 115c-63 0-115-51-115-115s52-114 115-114 114 51 114 114-51 115-114 115z m304-46c-37 0-68-31-68-69 0-38 31-68 68-68 38 0 69 30 69 68 0 38-31 69-69 69m0 46c64 0 115-51 115-115s-51-114-115-114c-63 0-114 51-114 114s51 115 114 115l0 0z" horiz-adv-x="1000" />
<glyph glyph-name="objective" unicode="&#xe804;" d="m538 449v-413c0-14-12-25-28-25h-97c-15 0-27 11-27 25v413c0 14 12 25 27 25h97c16 0 28-11 28-25z m355-237c-8 9-21 9-30 1l-68-65-65 67c-8 9-21 9-30 1-8-8-9-22 0-30l65-68-68-65c-8-8-8-22 0-30 4-5 9-7 15-7 5 0 11 2 15 6l67 65 66-67c4-5 9-7 15-7 5 0 11 2 15 6 8 9 9 22 0 31l-65 67 68 65c8 8 8 22 0 30z m14 330l-85-167c-4-8-11-14-19-16-3-1-6-1-9-1-5 0-11 1-15 4l-160 96c-15 9-19 28-11 42 9 14 28 19 42 10l94-56c-10 43-31 83-62 115-99 107-267 113-374 14-53-50-83-117-84-189 0-3-1-4-2-6 1-2 2-4 2-7v-173c0 0-1-1-1-1 36-13 63-45 68-84 4-29-5-59-25-81-19-22-48-35-77-35-5 0-9 0-13 1-46 6-84 43-89 89-4 29 5 59 25 81 13 16 31 26 50 32v171c0 3 1 5 2 7-1 2-2 4-2 7 2 89 39 172 104 232 132 123 338 116 461-16 37-39 62-87 76-138l49 97c8 15 26 21 41 13 15-7 21-26 14-41z m-711-375c-2 0-5 0-7 0-17 0-32-7-43-19-11-13-16-29-14-45 3-26 24-46 49-49 20-3 38 4 51 18 11 13 15 29 13 46-3 25-23 45-49 49z" horiz-adv-x="1000" />
<glyph glyph-name="observation" unicode="&#xe805;" d="m126 352l3-1-4 1 1 0z m639-82c19-6 39-13 59-20-65-131-184-206-337-207-1 0-1 0-1 0l0 0c0 0-1 0-1 0-180 10-317 159-375 255l-27-96c-3-14-16-22-29-22-3 0-6 0-8 1-17 4-26 21-22 38l40 140 11 42c3 8 8 15 16 19 7 4 16 4 24 1l177-63c0 0 0 0 0 0 16-6 24-23 18-39-5-16-23-24-39-19l-115 41c41-73 160-227 331-236 125 1 223 60 278 165z m-636 81l-3 1-1 0 4-1z m822 188c-16 4-33-7-36-23l-24-105c-56 93-186 243-373 253l-6 1c-1 0-1-1-1-1 0 0 0 1 0 1-135 1-251-75-314-205 21-7 41-14 58-20 30 56 106 166 255 163 0 0 0 0 0 0l5 0c163-9 280-151 326-228l-109 33c-16 5-33-4-38-20-5-16 4-31 18-37 1-1 2-1 3-2l179-54c3-1 6-1 9-1 5 0 11 1 15 4 8 4 13 12 15 20l8 35 33 149c4 17-6 33-23 37z m-440-71c-64 4-119-46-123-110-3-65 46-120 111-123 64-4 120 46 123 110 4 65-46 120-111 123z" horiz-adv-x="1000" />
<glyph glyph-name="personalize" unicode="&#xe808;" d="m430 125c-13-100-88-189-101-205-12 6-23 13-34 20 1 2 2 3 3 4 1 1 81 91 93 186 1 10 11 18 22 17 10-1 18-12 17-22z m97 32c-14 48-56 65-78 75-25 10-67 14-102-4-28-15-48-41-57-77-14-61-39-103-74-126 6-12 14-22 22-32 43 28 74 78 90 149 6 25 18 42 37 51 25 13 55 9 69 3 25-10 48-22 56-50 10-33 2-100-89-237-3-4-3-8-3-12 13-3 26-4 39-4 78 118 108 205 90 264z m54-225c53 112 91 290-51 377-57 35-111 45-160 28-77-27-119-110-138-160 0 0 0 0 0 0 4 9 15 14 25 11 10-4 15-15 11-25 1 1 1 1 1 2 13 33 49 113 114 135 37 13 80 5 126-24 172-105 16-366 15-368-1-1-1-1-1-2 20 7 39 15 58 26z m33 440c-119 80-230 82-328 7-46-35-85-84-110-120-3-26-5-51-4-75 2 1 4 3 6 6 0 1 58 102 131 158 85 65 178 63 284-8 171-115 81-312 62-351 0 0 0-1-1-1 27 25 51 55 73 89 18 89 14 210-113 295z m191-104c-22 68-68 158-164 211-86 48-176 60-267 34-59-17-111-49-148-79-4-10-8-20-12-30-7-19-14-38-19-56 5 1 9 4 11 9 10 18 77 89 179 119 80 22 160 12 237-31 122-68 156-206 161-250 4 11 8 23 12 35 3 13 7 26 10 38z m-253 349c-97 10-187-15-252-53-17-24-33-50-48-77 6 0 11 1 16 5 52 51 162 100 280 86 113-13 211-81 285-195 4 19 7 37 10 54-97 131-210 171-291 180z m-295-429c-10 3-21-2-25-11 0-1 0-1 0-1-19-49-39-67-49-73 4-13 8-26 13-38 17 8 47 31 72 98 0 0 0 0 0 0 4 10-1 21-11 25z m570 335c4-5 15-21 23-29 2 21 3 40 3 59-84 103-184 156-298 158-59 1-111-12-152-27-22-21-45-45-65-70 44 26 293 155 489-91z m20 94c-16 81-61 135-141 166-8 3-16 5-24 7-16 3-32 5-48 5-63-1-129-30-192-78 5-1 58 19 63 21 29 11 201 89 342-121z" horiz-adv-x="1000" />
<glyph glyph-name="plans" unicode="&#xe809;" d="m419 372h172v-349c0-25-20-44-44-44h-368c-25 0-45 19-45 44v525c0 25 20 45 45 45h198v-221h0 42z m0 217v-173-2h172 0l-172 175z m285 106v-173-2h172 0l-172 175z m0-221h-42 0v221h-199c-24 0-44-20-44-45v-5l172-172 42-42v-17-11-272-48-2h199c24 0 44 20 44 44v349h-172z" horiz-adv-x="1000" />
<glyph glyph-name="support" unicode="&#xe80c;" d="m915 341c0 0 0 0 0-1 0 0 0-1 0-2v-186c0-30-24-54-54-54h-25c-56-72-139-120-244-137-4-1-9-1-14-2-3-3-7-5-11-5h-89c-8 0-16 7-16 16v27c0 9 8 16 16 16h89c8 0 16-7 16-16v-6c89 14 162 51 213 107h-1c-30 0-55 24-55 54v186c0 30 25 54 55 54h66c1 0 1 0 2 0-20 176-170 313-351 313-181 0-330-137-350-313 0 0 0 0 0 0h66c30 0 55-24 55-54v-186c0-30-25-54-55-54h-66c-30 0-55 24-55 54v186c0 1 1 2 1 3h-1v11c0 223 182 405 405 405s405-182 405-405v-11h-2z" horiz-adv-x="1000" />
<glyph glyph-name="tasks" unicode="&#xe80d;" d="m451 653c-7 7-19 7-27 0l-61-61c-10 9-24 15-39 15h-151c-31 0-56-24-56-53v-136c0-29 25-53 56-53h151c31 0 56 24 56 53v88l-44-41v-47c0-5-6-9-12-9h-151c-6 0-12 4-12 9v136c0 4 6 9 12 9h151c3 0 5-1 7-3l-75-75-40 45c-7 8-19 8-27 1-8-7-9-19-2-27l67-75 49 49 121 120 27 28c8 7 8 19 0 27z m-125-362h-155c-31 0-57-24-57-53v-140c0-29 26-53 57-53h155c31 0 57 24 57 53v140c0 29-26 53-57 53z m13-193c0-5-6-10-13-10h-155c-7 0-13 5-13 10v140c0 5 6 9 13 9h155c7 0 13-4 13-9v-140z m520 193h-338c-31 0-57-24-57-53v-140c0-29 26-53 57-53h338c31 0 57 24 57 53v140c0 29-26 53-57 53z m13-193c0-5-6-10-13-10h-338c-7 0-13 5-13 10v140c0 5 6 9 13 9h338c7 0 13-4 13-9v-140z m-13 516h-338c-31 0-57-25-57-54v-139c0-30 26-54 57-54h338c31 0 57 24 57 54v139c0 29-26 54-57 54z" horiz-adv-x="1000" />
<glyph glyph-name="training" unicode="&#xe810;" d="m877 656v-335c0-36-31-65-69-65h-112c-18 0-33 15-33 33s15 32 33 32h112c2 0 4 1 4 1l-1 333c0 0-1 0-3 0h-487c-2 0-3-1-3-1l0-79c0-18-14-32-33-32s-32 14-32 32v81c0 35 31 65 68 65h487c38 0 69-30 69-65z m-587-400c63 0 115 51 115 114 0 64-52 115-115 115-63 0-114-51-114-115 0-63 51-114 114-114z m270 117l-165-167h-193c-44 0-81-36-81-80v-157h325l0 191 163 165c14 13 14 35 0 48-14 14-35 14-49 0z m101 203c-9 2-18-3-20-13l-38-154c-3-9 3-18 12-21 2 0 3 0 5 0 7 0 14 5 16 13l38 154c2 9-3 19-13 21z" horiz-adv-x="1000" />
<glyph glyph-name="uploadvideos" unicode="&#xe811;" d="m899 584v-335c0-35-30-64-68-64h-73c-18 0-33 14-33 32 0 18 15 33 33 33h73c2 0 3 1 4 1l-1 333c0-1-1 0-3 0h-487c-2 0-3-1-4-1l1-64c0-18-15-32-33-32-18 0-32 14-32 32v65c0 36 30 65 68 65h487c38 0 68-29 68-65z m-226-181v-335c0-17-16-32-36-32h-486c-20 0-36 15-36 32v335c0 18 16 32 36 32h486c20 0 36-14 36-32z m-193-167c0 3-1 6-4 8l-133 80c-3 2-6 2-9 0-3-1-5-4-5-8v-161c0-3 2-6 5-8 1-1 3-1 4-1 2 0 4 0 5 1l133 81c3 2 4 5 4 8z" horiz-adv-x="1000" />
<glyph glyph-name="mobile" unicode="&#xe815;" d="m706 761h-383c-21 0-37-17-37-38v-735c0-20 16-37 37-37h383c21 0 37 17 37 37v735c0 21-16 38-37 38z m-190-713c-18 0-33 15-33 33 0 18 15 33 33 33s33-15 33-33c0-18-15-33-33-33z m63 584h-130v30h130v-30z" horiz-adv-x="1000" />
</font>
</defs>
</svg>
